<?xml version="1.0" standalone="no"?>
<!DOCTYPE svg PUBLIC "-//W3C//DTD SVG 20010904//EN"
 "http://www.w3.org/TR/2001/REC-SVG-20010904/DTD/svg10.dtd">
<svg version="1.0" xmlns="http://www.w3.org/2000/svg"
 width="256.000000pt" height="256.000000pt" viewBox="0 0 256.000000 256.000000"
 preserveAspectRatio="xMidYMid meet">

<g transform="translate(0.000000,256.000000) scale(0.100000,-0.100000)"
fill="#1E9468" stroke="none">
<path d="M176 2540 c-39 -12 -75 -47 -97 -95 -18 -38 -19 -93 -19 -1171 l0
-1131 23 -43 c16 -30 37 -51 67 -67 l43 -23 1087 0 1087 0 43 23 c30 16 51 37
67 67 l23 43 0 1129 c0 998 -2 1133 -16 1166 -21 51 -61 90 -103 102 -45 12
-2163 12 -2205 0z m435 -252 c52 -15 117 -73 140 -122 25 -54 24 -148 0 -201
-40 -85 -120 -135 -218 -135 -227 1 -326 282 -149 421 59 46 149 61 227 37z
m1639 -218 l0 -30 -640 0 -640 0 0 30 0 30 640 0 640 0 0 -30z m-1650 -680
c91 -50 168 -94 172 -98 6 -6 -129 -85 -369 -215 l-53 -29 0 242 0 241 43 -25
c23 -13 116 -65 207 -116z m1650 -110 l0 -30 -640 0 -640 0 0 30 0 30 640 0
640 0 0 -30z m-1490 -775 l0 -215 -215 0 -215 0 0 215 0 215 215 0 215 0 0
-215z m1490 0 l0 -35 -640 0 -640 0 0 35 0 35 640 0 640 0 0 -35z"/>
</g>
</svg>
